<svg xmlns="http://www.w3.org/2000/svg" xmlns:xlink="http://www.w3.org/1999/xlink" width="248" height="248" viewBox="0 0 248 248"><defs><filter id="a" x="0" y="0" width="248" height="248" filterUnits="userSpaceOnUse"><feOffset dy="4" input="SourceAlpha"/><feGaussianBlur stdDeviation="3" result="b"/><feFlood flood-opacity="0.161"/><feComposite operator="in" in2="b"/><feComposite in="SourceGraphic"/></filter><clipPath id="c"><rect width="86" height="119.79" fill="none"/></clipPath><filter id="d" x="80" y="53" width="122" height="155.79" filterUnits="userSpaceOnUse"><feOffset dy="6" input="SourceAlpha"/><feGaussianBlur stdDeviation="6" result="e"/><feFlood flood-opacity="0.161"/><feComposite operator="in" in2="e"/><feComposite in="SourceGraphic"/></filter><clipPath id="f"><rect width="20.148" height="13.529" fill="none"/></clipPath><filter id="h" x="29.629" y="44.862" width="146.743" height="172.066" filterUnits="userSpaceOnUse"><feOffset dy="6" input="SourceAlpha"/><feGaussianBlur stdDeviation="6" result="i"/><feFlood flood-opacity="0.161"/><feComposite operator="in" in2="i"/><feComposite in="SourceGraphic"/></filter></defs><g transform="translate(-857 -525)"><g transform="matrix(1, 0, 0, 1, 857, 525)" filter="url(#a)"><circle cx="115" cy="115" r="115" transform="translate(9 5)" fill="#fe9827"/></g><g transform="translate(955 590)" clip-path="url(#c)"><g transform="matrix(1, 0, 0, 1, -98, -65)" filter="url(#d)"><g transform="translate(98 65)" fill="#fff" stroke="#d9d9d9" stroke-width="0.5"><rect width="86" height="119.79" rx="2" stroke="none"/><rect x="0.25" y="0.25" width="85.5" height="119.29" rx="1.75" fill="none"/></g></g><line x2="47" transform="translate(19.5 15.5)" fill="none" stroke="#707070" stroke-width="1"/><path d="M0,0H60.751" transform="translate(15.394 27.5)" fill="none" stroke="#707070" stroke-width="1"/><line x2="68.645" transform="translate(7.5 33.5)" fill="none" stroke="#707070" stroke-width="1"/><line x2="40" transform="translate(7.5 39.5)" fill="none" stroke="#707070" stroke-width="1"/><path d="M0,0H60.751" transform="translate(15.394 51.5)" fill="none" stroke="#707070" stroke-width="1"/><line x2="68.645" transform="translate(7.5 57.5)" fill="none" stroke="#707070" stroke-width="1"/><line x2="69" transform="translate(7.5 63.5)" fill="none" stroke="#707070" stroke-width="1"/><path d="M0,0H68.751" transform="translate(7.394 69.5)" fill="none" stroke="#707070" stroke-width="1"/><line x2="56" transform="translate(7.5 75.5)" fill="none" stroke="#707070" stroke-width="1"/><line x2="40" transform="translate(15.5 85.5)" fill="none" stroke="#707070" stroke-width="1"/><path d="M0,0H60.751" transform="translate(15.394 95.5)" fill="none" stroke="#707070" stroke-width="1"/><line x2="68.645" transform="translate(8.5 101.5)" fill="none" stroke="#707070" stroke-width="1"/><line x2="40" transform="translate(8.5 107.5)" fill="none" stroke="#707070" stroke-width="1"/><path d="M0,10.156l4.231,2.424L9.781,0" transform="translate(30.041 29.561) rotate(13)" fill="none" stroke="#ff5a5a" stroke-width="1"/><path d="M0,10.156l4.231,2.424L9.781,0" transform="matrix(0.966, 0.259, -0.259, 0.966, 60.295, 54.449)" fill="none" stroke="#ff5a5a" stroke-width="1"/><path d="M0,10.156l4.231,2.424L9.781,0" transform="translate(38.041 77.561) rotate(13)" fill="none" stroke="#ff5a5a" stroke-width="1"/><g transform="translate(15.562 101.169) rotate(-17)" fill="none" stroke="#ff5a5a" stroke-width="1"><ellipse cx="10.5" cy="4" rx="10.5" ry="4" stroke="none"/><ellipse cx="10.5" cy="4" rx="10" ry="3.5" fill="none"/></g><g transform="translate(24.562 57.169) rotate(-17)" fill="none" stroke="#ff5a5a" stroke-width="1"><ellipse cx="10.5" cy="4" rx="10.5" ry="4" stroke="none"/><ellipse cx="10.5" cy="4" rx="10" ry="3.5" fill="none"/></g><g transform="translate(61.426 5.223)" clip-path="url(#f)"><line x1="5" y2="10" transform="translate(3.074 1.277)" fill="none" stroke="#ff5a5a" stroke-width="1"/><line x2="7" y2="12" transform="translate(3.074 1.277)" fill="none" stroke="#ff5a5a" stroke-width="1"/><line x1="6" y2="9" transform="translate(10.074 0.277)" fill="none" stroke="#ff5a5a" stroke-width="1"/><line x2="7" y2="10" transform="translate(10.074 1.277)" fill="none" stroke="#ff5a5a" stroke-width="1"/><line y1="3" x2="20" transform="translate(0.074 9.277)" fill="none" stroke="#ff5a5a" stroke-width="1"/></g></g><g transform="translate(904.629 601.208) rotate(-13)" clip-path="url(#c)"><g transform="matrix(0.97, 0.22, -0.22, 0.97, -29.27, -84.97)" filter="url(#h)"><g transform="translate(47.63 76.21) rotate(-13)" fill="#fff" stroke="#d9d9d9" stroke-width="0.5"><rect width="86" height="119.79" rx="2" stroke="none"/><rect x="0.25" y="0.25" width="85.5" height="119.29" rx="1.75" fill="none"/></g></g><line x2="47" transform="translate(19.5 15.5)" fill="none" stroke="#707070" stroke-width="1"/><path d="M0,0H60.751" transform="translate(15.394 27.5)" fill="none" stroke="#707070" stroke-width="1"/><line x2="68.645" transform="translate(7.5 33.5)" fill="none" stroke="#707070" stroke-width="1"/><line x2="40" transform="translate(7.5 39.5)" fill="none" stroke="#707070" stroke-width="1"/><path d="M0,0H60.751" transform="translate(15.394 51.5)" fill="none" stroke="#707070" stroke-width="1"/><line x2="68.645" transform="translate(7.5 57.5)" fill="none" stroke="#707070" stroke-width="1"/><line x2="69" transform="translate(7.5 63.5)" fill="none" stroke="#707070" stroke-width="1"/><path d="M0,0H68.751" transform="translate(7.394 69.5)" fill="none" stroke="#707070" stroke-width="1"/><line x2="56" transform="translate(7.5 75.5)" fill="none" stroke="#707070" stroke-width="1"/><line x2="40" transform="translate(15.5 85.5)" fill="none" stroke="#707070" stroke-width="1"/><path d="M0,0H60.751" transform="translate(15.394 95.5)" fill="none" stroke="#707070" stroke-width="1"/><line x2="68.645" transform="translate(8.5 101.5)" fill="none" stroke="#707070" stroke-width="1"/><line x2="40" transform="translate(8.5 107.5)" fill="none" stroke="#707070" stroke-width="1"/><path d="M0,10.156l4.231,2.424L9.781,0" transform="translate(30.041 29.561) rotate(13)" fill="none" stroke="#ff5a5a" stroke-width="1"/><path d="M0,10.156l4.231,2.424L9.781,0" transform="matrix(0.966, 0.259, -0.259, 0.966, 60.295, 54.449)" fill="none" stroke="#ff5a5a" stroke-width="1"/><path d="M0,10.156l4.231,2.424L9.781,0" transform="translate(38.041 77.561) rotate(13)" fill="none" stroke="#ff5a5a" stroke-width="1"/><g transform="translate(15.562 101.169) rotate(-17)" fill="none" stroke="#ff5a5a" stroke-width="1"><ellipse cx="10.5" cy="4" rx="10.5" ry="4" stroke="none"/><ellipse cx="10.5" cy="4" rx="10" ry="3.5" fill="none"/></g><g transform="translate(24.562 57.169) rotate(-17)" fill="none" stroke="#ff5a5a" stroke-width="1"><ellipse cx="10.5" cy="4" rx="10.5" ry="4" stroke="none"/><ellipse cx="10.5" cy="4" rx="10" ry="3.5" fill="none"/></g><g transform="translate(61.426 5.223)" clip-path="url(#f)"><line x1="5" y2="10" transform="translate(3.074 1.277)" fill="none" stroke="#ff5a5a" stroke-width="1"/><line x2="7" y2="12" transform="translate(3.074 1.277)" fill="none" stroke="#ff5a5a" stroke-width="1"/><line x1="6" y2="9" transform="translate(10.074 0.277)" fill="none" stroke="#ff5a5a" stroke-width="1"/><line x2="7" y2="10" transform="translate(10.074 1.277)" fill="none" stroke="#ff5a5a" stroke-width="1"/><line y1="3" x2="20" transform="translate(0.074 9.277)" fill="none" stroke="#ff5a5a" stroke-width="1"/></g></g></g></svg>