<svg xmlns="http://www.w3.org/2000/svg" xmlns:xlink="http://www.w3.org/1999/xlink" width="248" height="248" viewBox="0 0 248 248">
  <defs>
    <filter id="Ellipse_24" x="0" y="0" width="248" height="248" filterUnits="userSpaceOnUse">
      <feOffset dy="3" input="SourceAlpha"/>
      <feGaussianBlur stdDeviation="3" result="blur"/>
      <feFlood flood-opacity="0.161"/>
      <feComposite operator="in" in2="blur"/>
      <feComposite in="SourceGraphic"/>
    </filter>
  </defs>
  <g id="Group_6" data-name="Group 6" transform="translate(-347 -524)">
    <g transform="matrix(1, 0, 0, 1, 347, 524)" filter="url(#Ellipse_24)">
      <circle id="Ellipse_24-2" data-name="Ellipse 24" cx="115" cy="115" r="115" transform="translate(9 6)" fill="#ff674e"/>
    </g>
    <g id="Body" transform="translate(465 543.047)" fill="#fff">
      <path d="M 48.61711120605469 161.4714813232422 C 41.86557769775391 161.4714813232422 36.22877883911133 160.7794189453125 31.86326789855957 159.4145202636719 C 29.77980041503906 158.7631072998047 27.93436813354492 157.9430694580078 26.37821197509766 156.9772033691406 C 24.88012313842773 156.0473327636719 23.60304641723633 154.9528198242188 22.58245658874512 153.7240142822266 C 19.33677864074707 149.816162109375 18.42773628234863 144.3220520019531 19.80350685119629 136.9291687011719 L 31.0797004699707 99.58783721923828 C 32.56095123291016 94.8712158203125 35.01400375366211 90.99727630615234 38.17388916015625 88.38433074951172 C 41.10055541992188 85.96424102783203 44.52098083496094 84.68505096435547 48.06539154052734 84.68505096435547 C 51.60980224609375 84.68505096435547 55.03022384643555 85.96424102783203 57.95689010620117 88.38433074951172 C 61.11735534667969 90.99774932861328 63.5707893371582 94.87282562255859 65.05195617675781 99.59062957763672 L 65.05271148681641 99.59303283691406 L 65.05348968505859 99.59542083740234 L 77.1947021484375 136.9505310058594 C 78.06998443603516 140.3424682617188 78.36459350585938 143.4189147949219 78.07023620605469 146.0943450927734 C 77.76675415039062 148.8527374267578 76.82655334472656 151.2667846679688 75.2757568359375 153.2694091796875 C 73.22811126708984 155.9136199951172 70.03823089599609 157.9442291259766 65.79473114013672 159.3048553466797 C 61.3109245300293 160.7425231933594 55.53154373168945 161.4714813232422 48.61711120605469 161.4714813232422 Z" stroke="none"/>
      <path d="M 48.06539154052734 85.18504333496094 C 44.63870239257812 85.18504333496094 41.32845687866211 86.42457580566406 38.49252319335938 88.76963806152344 C 35.40763092041016 91.32057189941406 33.00953674316406 95.11250305175781 31.5572509765625 99.73599243164062 L 20.29011535644531 137.0473175048828 C 18.95020294189453 144.2717742919922 19.82603454589844 149.6226654052734 22.96708679199219 153.404541015625 C 23.95322418212891 154.5918884277344 25.18961334228516 155.6509704589844 26.64189910888672 156.5523681640625 C 28.16227722167969 157.4960479736328 29.96920013427734 158.2984619140625 32.01246643066406 158.9372863769531 C 36.32963562011719 160.2870788574219 41.91623306274414 160.9714813232422 48.61711120605469 160.9714813232422 C 55.47965621948242 160.9714813232422 61.20767974853516 160.2505645751953 65.64206695556641 158.8287353515625 C 69.78756713867188 157.4995269775391 72.89579772949219 155.5261077880859 74.88042449951172 152.9632568359375 C 76.37397766113281 151.0345611572266 77.27996826171875 148.7051391601562 77.57323455810547 146.0396423339844 C 77.86051940917969 143.4284362792969 77.57162475585938 140.4178161621094 76.71442413330078 137.0904846191406 L 64.57797241210938 99.74995422363281 L 64.57642364501953 99.74517822265625 L 64.57491302490234 99.74038696289062 C 63.12275695800781 95.11497497558594 60.72409057617188 91.32135009765625 57.63825607299805 88.76963806152344 C 54.80232238769531 86.42457580566406 51.49208068847656 85.18504333496094 48.06539154052734 85.18504333496094 M 48.06539154052734 84.18504333496094 C 55.20065689086914 84.18504333496094 62.33592224121094 89.27030944824219 65.52899932861328 99.44085693359375 L 77.67497253417969 136.8106536865234 C 81.64625549316406 152.1745147705078 74.25462341308594 161.9714813232422 48.61711120605469 161.9714813232422 C 22.50112152099609 161.9714813232422 16.49919128417969 151.9006195068359 19.31699371337891 136.8106536865234 L 30.60177612304688 99.44085693359375 C 33.79485321044922 89.27030944824219 40.93012237548828 84.18504333496094 48.06539154052734 84.18504333496094 Z" stroke="none" fill="#f2f2f2"/>
    </g>
    <g id="Head" transform="translate(485.689 582.956)" fill="#fff" stroke="#f2f2f2" stroke-width="1">
      <circle cx="27.225" cy="27.225" r="27.225" stroke="none"/>
      <circle cx="27.225" cy="27.225" r="26.725" fill="none"/>
    </g>
    <g id="Body-2" data-name="Body" transform="translate(378 543.047)" fill="#fff">
      <path d="M 48.61711120605469 161.4714813232422 C 41.86557769775391 161.4714813232422 36.22877883911133 160.7794189453125 31.86326789855957 159.4145202636719 C 29.77980041503906 158.7631072998047 27.93436813354492 157.9430694580078 26.37821197509766 156.9772033691406 C 24.88012313842773 156.0473327636719 23.60304641723633 154.9528198242188 22.58245658874512 153.7240142822266 C 19.33677864074707 149.816162109375 18.42773628234863 144.3220520019531 19.80350685119629 136.9291687011719 L 31.0797004699707 99.58783721923828 C 32.56095123291016 94.8712158203125 35.01400375366211 90.99727630615234 38.17388916015625 88.38433074951172 C 41.10055541992188 85.96424102783203 44.52098083496094 84.68505096435547 48.06539154052734 84.68505096435547 C 51.60980224609375 84.68505096435547 55.03022384643555 85.96424102783203 57.95689010620117 88.38433074951172 C 61.11735534667969 90.99774932861328 63.5707893371582 94.87282562255859 65.05195617675781 99.59062957763672 L 65.05271148681641 99.59303283691406 L 65.05348968505859 99.59542083740234 L 77.1947021484375 136.9505310058594 C 78.06998443603516 140.3424682617188 78.36459350585938 143.4189147949219 78.07023620605469 146.0943450927734 C 77.76675415039062 148.8527374267578 76.82655334472656 151.2667846679688 75.2757568359375 153.2694091796875 C 73.22811126708984 155.9136199951172 70.03823089599609 157.9442291259766 65.79473114013672 159.3048553466797 C 61.3109245300293 160.7425231933594 55.53154373168945 161.4714813232422 48.61711120605469 161.4714813232422 Z" stroke="none"/>
      <path d="M 48.06539154052734 85.18504333496094 C 44.63870239257812 85.18504333496094 41.32845687866211 86.42457580566406 38.49252319335938 88.76963806152344 C 35.40763092041016 91.32057189941406 33.00953674316406 95.11250305175781 31.5572509765625 99.73599243164062 L 20.29011535644531 137.0473175048828 C 18.95020294189453 144.2717742919922 19.82603454589844 149.6226654052734 22.96708679199219 153.404541015625 C 23.95322418212891 154.5918884277344 25.18961334228516 155.6509704589844 26.64189910888672 156.5523681640625 C 28.16227722167969 157.4960479736328 29.96920013427734 158.2984619140625 32.01246643066406 158.9372863769531 C 36.32963562011719 160.2870788574219 41.91623306274414 160.9714813232422 48.61711120605469 160.9714813232422 C 55.47965621948242 160.9714813232422 61.20767974853516 160.2505645751953 65.64206695556641 158.8287353515625 C 69.78756713867188 157.4995269775391 72.89579772949219 155.5261077880859 74.88042449951172 152.9632568359375 C 76.37397766113281 151.0345611572266 77.27996826171875 148.7051391601562 77.57323455810547 146.0396423339844 C 77.86051940917969 143.4284362792969 77.57162475585938 140.4178161621094 76.71442413330078 137.0904846191406 L 64.57797241210938 99.74995422363281 L 64.57642364501953 99.74517822265625 L 64.57491302490234 99.74038696289062 C 63.12275695800781 95.11497497558594 60.72409057617188 91.32135009765625 57.63825607299805 88.76963806152344 C 54.80232238769531 86.42457580566406 51.49208068847656 85.18504333496094 48.06539154052734 85.18504333496094 M 48.06539154052734 84.18504333496094 C 55.20065689086914 84.18504333496094 62.33592224121094 89.27030944824219 65.52899932861328 99.44085693359375 L 77.67497253417969 136.8106536865234 C 81.64625549316406 152.1745147705078 74.25462341308594 161.9714813232422 48.61711120605469 161.9714813232422 C 22.50112152099609 161.9714813232422 16.49919128417969 151.9006195068359 19.31699371337891 136.8106536865234 L 30.60177612304688 99.44085693359375 C 33.79485321044922 89.27030944824219 40.93012237548828 84.18504333496094 48.06539154052734 84.18504333496094 Z" stroke="none" fill="#f2f2f2"/>
    </g>
    <g id="Head-2" data-name="Head" transform="translate(398.689 582.956)" fill="#fff" stroke="#f2f2f2" stroke-width="1">
      <circle cx="27.225" cy="27.225" r="27.225" stroke="none"/>
      <circle cx="27.225" cy="27.225" r="26.725" fill="none"/>
    </g>
    <g id="Body-3" data-name="Body" transform="translate(422 562.047)" fill="#fff">
      <path d="M 48.61711120605469 161.4714813232422 C 41.86557769775391 161.4714813232422 36.22877883911133 160.7794189453125 31.86326789855957 159.4145202636719 C 29.77980041503906 158.7631072998047 27.93436813354492 157.9430694580078 26.37821197509766 156.9772033691406 C 24.88012313842773 156.0473327636719 23.60304641723633 154.9528198242188 22.58245658874512 153.7240142822266 C 19.33677864074707 149.816162109375 18.42773628234863 144.3220520019531 19.80350685119629 136.9291687011719 L 31.0797004699707 99.58783721923828 C 32.56095123291016 94.8712158203125 35.01400375366211 90.99727630615234 38.17388916015625 88.38433074951172 C 41.10055541992188 85.96424102783203 44.52098083496094 84.68505096435547 48.06539154052734 84.68505096435547 C 51.60980224609375 84.68505096435547 55.03022384643555 85.96424102783203 57.95689010620117 88.38433074951172 C 61.11735534667969 90.99774932861328 63.5707893371582 94.87282562255859 65.05195617675781 99.59062957763672 L 65.05271148681641 99.59303283691406 L 65.05348968505859 99.59542083740234 L 77.1947021484375 136.9505310058594 C 78.06998443603516 140.3424682617188 78.36459350585938 143.4189147949219 78.07023620605469 146.0943450927734 C 77.76675415039062 148.8527374267578 76.82655334472656 151.2667846679688 75.2757568359375 153.2694091796875 C 73.22811126708984 155.9136199951172 70.03823089599609 157.9442291259766 65.79473114013672 159.3048553466797 C 61.3109245300293 160.7425231933594 55.53154373168945 161.4714813232422 48.61711120605469 161.4714813232422 Z" stroke="none"/>
      <path d="M 48.06539154052734 85.18504333496094 C 44.63870239257812 85.18504333496094 41.32845687866211 86.42457580566406 38.49252319335938 88.76963806152344 C 35.40763092041016 91.32057189941406 33.00953674316406 95.11250305175781 31.5572509765625 99.73599243164062 L 20.29011535644531 137.0473175048828 C 18.95020294189453 144.2717742919922 19.82603454589844 149.6226654052734 22.96708679199219 153.404541015625 C 23.95322418212891 154.5918884277344 25.18961334228516 155.6509704589844 26.64189910888672 156.5523681640625 C 28.16227722167969 157.4960479736328 29.96920013427734 158.2984619140625 32.01246643066406 158.9372863769531 C 36.32963562011719 160.2870788574219 41.91623306274414 160.9714813232422 48.61711120605469 160.9714813232422 C 55.47965621948242 160.9714813232422 61.20767974853516 160.2505645751953 65.64206695556641 158.8287353515625 C 69.78756713867188 157.4995269775391 72.89579772949219 155.5261077880859 74.88042449951172 152.9632568359375 C 76.37397766113281 151.0345611572266 77.27996826171875 148.7051391601562 77.57323455810547 146.0396423339844 C 77.86051940917969 143.4284362792969 77.57162475585938 140.4178161621094 76.71442413330078 137.0904846191406 L 64.57797241210938 99.74995422363281 L 64.57642364501953 99.74517822265625 L 64.57491302490234 99.74038696289062 C 63.12275695800781 95.11497497558594 60.72409057617188 91.32135009765625 57.63825607299805 88.76963806152344 C 54.80232238769531 86.42457580566406 51.49208068847656 85.18504333496094 48.06539154052734 85.18504333496094 M 48.06539154052734 84.18504333496094 C 55.20065689086914 84.18504333496094 62.33592224121094 89.27030944824219 65.52899932861328 99.44085693359375 L 77.67497253417969 136.8106536865234 C 81.64625549316406 152.1745147705078 74.25462341308594 161.9714813232422 48.61711120605469 161.9714813232422 C 22.50112152099609 161.9714813232422 16.49919128417969 151.9006195068359 19.31699371337891 136.8106536865234 L 30.60177612304688 99.44085693359375 C 33.79485321044922 89.27030944824219 40.93012237548828 84.18504333496094 48.06539154052734 84.18504333496094 Z" stroke="none" fill="#f2f2f2"/>
    </g>
    <g id="Head-3" data-name="Head" transform="translate(442.689 601.956)" fill="#fff" stroke="#f2f2f2" stroke-width="1">
      <circle cx="27.225" cy="27.225" r="27.225" stroke="none"/>
      <circle cx="27.225" cy="27.225" r="26.725" fill="none"/>
    </g>
  </g>
</svg>
