<svg xmlns="http://www.w3.org/2000/svg" width="77.077" height="156.803" viewBox="0 0 77.077 156.803">
  <g id="Union_31" data-name="Union 31" transform="translate(0)" fill="#fff">
    <path d="M 38.45499038696289 156.3033599853516 C 29.76741218566895 156.3033599853516 22.51197242736816 155.4121398925781 16.89017105102539 153.6544342041016 C 14.20229244232178 152.8140258789062 11.82065200805664 151.7555999755859 9.81141185760498 150.5084686279297 C 7.873891830444336 149.3058776855469 6.221752166748047 147.8897399902344 4.900891780853271 146.2993927001953 C 0.7015401124954224 141.2432861328125 -0.4758108556270599 134.1456451416016 1.30203914642334 124.6004486083984 L 15.79072761535645 76.62191772460938 C 17.07662582397461 72.52722930908203 18.90407943725586 68.95523071289062 21.22223281860352 66.00553131103516 L 21.58753204345703 65.54071044921875 L 21.06853103637695 65.25762939453125 C 15.71753215789795 62.33895111083984 11.21717166900635 58.03919219970703 8.05399227142334 52.82319259643555 C 4.799232006072998 47.45621109008789 3.078871965408325 41.28375244140625 3.078871965408325 34.97311401367188 C 3.078871965408325 30.31907272338867 3.990231990814209 25.80451202392578 5.787652015686035 21.55485153198242 C 7.523891925811768 17.44987297058105 10.00955200195312 13.76311206817627 13.175612449646 10.59701251983643 C 16.3416919708252 7.430872440338135 20.02843284606934 4.945152282714844 24.1334114074707 3.208892345428467 C 28.38313102722168 1.411412358283997 32.89779281616211 0.5000123381614685 37.55197143554688 0.5000123381614685 C 42.20599365234375 0.5000123381614685 46.72055053710938 1.411412358283997 50.97025299072266 3.208892345428467 C 55.07521057128906 4.945172309875488 58.76197052001953 7.430892467498779 61.92809295654297 10.59701251983643 C 65.09421539306641 13.76313209533691 67.57993316650391 17.44989204406738 69.31621551513672 21.55485153198242 C 71.11369323730469 25.80455207824707 72.02509307861328 30.319091796875 72.02509307861328 34.97311401367188 C 72.02509307861328 41.23003387451172 70.33179473876953 47.35735321044922 67.12825012207031 52.69267272949219 C 64.01596832275391 57.87601089477539 59.58079147338867 62.16997146606445 54.30219268798828 65.11038970947266 L 53.7868537902832 65.39745330810547 L 54.15449142456055 65.85879516601562 C 56.52895355224609 68.83845520019531 58.39583206176758 72.46089172363281 59.70325088500977 76.62547302246094 L 59.7039909362793 76.62786865234375 L 59.70477294921875 76.63027191162109 L 75.30298614501953 124.6220321655273 C 76.43254852294922 128.9975738525391 76.81262969970703 132.9681243896484 76.43253326416016 136.4231567382812 C 76.03981018066406 139.9929962158203 74.82233428955078 143.1180877685547 72.81394958496094 145.7116546630859 C 71.50836944580078 147.3976287841797 69.83589172363281 148.9022369384766 67.84294891357422 150.1836700439453 C 65.79237365722656 151.5021667480469 63.34383010864258 152.6224060058594 60.56533050537109 153.5132904052734 C 54.7912712097168 155.3646392822266 47.35227203369141 156.3033599853516 38.45499038696289 156.3033599853516 Z" stroke="none"/>
    <path d="M 38.45499038696289 155.8033599853516 C 47.30037307739258 155.8033599853516 54.68801116943359 154.8726654052734 60.41267013549805 153.0371704101562 C 63.14967346191406 152.1595916748047 65.55860900878906 151.0580596923828 67.57253265380859 149.7631072998047 C 69.51750946044922 148.5125122070312 71.14794921875 147.0464172363281 72.41860961914062 145.4055328369141 C 74.36977386474609 142.8858795166016 75.55303192138672 139.8453674316406 75.93553161621094 136.3684997558594 C 76.30857086181641 132.9775695800781 75.93410491943359 129.0725250244141 74.82256317138672 124.7614364624023 L 59.22927093505859 76.78481292724609 L 59.22771072387695 76.780029296875 L 59.22621154785156 76.77523040771484 C 57.93731307983398 72.66965484619141 56.09937286376953 69.10166931152344 53.76345062255859 66.17041015625 L 53.02819061279297 65.24773406982422 L 54.05887222290039 64.67359161376953 C 59.26117324829102 61.77567291259766 63.63225173950195 57.54375076293945 66.69956970214844 52.4352912902832 C 69.85645294189453 47.17769241333008 71.52509307861328 41.13937377929688 71.52509307861328 34.97311401367188 C 71.52509307861328 30.38637161254883 70.62696838378906 25.93735313415527 68.855712890625 21.74963188171387 C 67.1446533203125 17.70427322387695 64.69491577148438 14.07093238830566 61.57453155517578 10.95057201385498 C 58.45417022705078 7.830192565917969 54.82083129882812 5.380452156066895 50.77547073364258 3.669392347335815 C 46.58773040771484 1.89813232421875 42.13871383666992 1.000012397766113 37.55197143554688 1.000012397766113 C 32.96507263183594 1.000012397766113 28.51595115661621 1.89813232421875 24.32819175720215 3.669392347335815 C 20.28281211853027 5.380452156066895 16.64949226379395 7.830192565917969 13.52917194366455 10.95055198669434 C 10.4088716506958 14.07091236114502 7.959171772003174 17.70423316955566 6.248171806335449 21.74961280822754 C 4.476952075958252 25.93733215332031 3.578871965408325 30.3863525390625 3.578871965408325 34.97311401367188 C 3.578871965408325 41.19231414794922 5.274171829223633 47.27511215209961 8.481512069702148 52.56391143798828 C 11.59901237487793 57.70457077026367 16.03431129455566 61.94219207763672 21.30795288085938 64.81867218017578 L 22.34595108032227 65.38484954833984 L 21.61537170410156 66.31447601318359 C 19.33498573303223 69.21613311767578 17.53608512878418 72.73356628417969 16.26837158203125 76.76976013183594 L 1.788612484931946 124.7187194824219 C 0.04697515815496445 134.0949401855469 1.190993905067444 141.0500335693359 5.285531997680664 145.9799346923828 C 6.571931838989258 147.52880859375 8.183371543884277 148.9094848632812 10.07509231567383 150.0836486816406 C 12.04855155944824 151.3085784912109 14.39167213439941 152.3493957519531 17.03937149047852 153.1772155761719 C 22.61283111572266 154.9197998046875 29.81807136535645 155.8033599853516 38.45499038696289 155.8033599853516 M 38.45499038696289 156.8033599853516 C 4.905972003936768 156.8033599853516 -2.804188013076782 143.8660888671875 0.8155319690704346 124.4818954467773 L 15.31257152557373 76.47571563720703 C 16.66293144226074 72.17430877685547 18.56161117553711 68.58183288574219 20.82911109924316 65.69657135009766 C 9.955692291259766 59.76573181152344 2.578871965408325 48.23093414306641 2.578871965408325 34.97311401367188 C 2.578871965408325 15.65817260742188 18.23633193969727 1.236328080267413e-05 37.55197143554688 1.236328080267413e-05 C 56.8669319152832 1.236328080267413e-05 72.52509307861328 15.65817260742188 72.52509307861328 34.97311401367188 C 72.52509307861328 48.12011337280273 65.26979064941406 59.57329177856445 54.54551315307617 65.54719543457031 C 56.86441040039062 68.45711517333984 58.80689239501953 72.1009521484375 60.18029022216797 76.47571563720703 L 75.78319549560547 124.4818954467773 C 80.88507080078125 144.2186126708984 71.38915252685547 156.8033599853516 38.45499038696289 156.8033599853516 Z" stroke="none"/>
  </g>
</svg>
